<svg xmlns="http://www.w3.org/2000/svg" xmlns:xlink="http://www.w3.org/1999/xlink" width="35.13mm" height="40.47mm" viewBox="0 0 99.58 114.73"><defs><style>.a{isolation:isolate;}.b,.d{fill:#fff;}.c,.g{fill:#5285ff;}.d{opacity:0.24;}.d,.e,.f{mix-blend-mode:overlay;}.e{opacity:0.41;fill:url(#a);}.f{opacity:0.18;fill:url(#b);}.g{opacity:0.83;}.h,.i{mix-blend-mode:screen;}.h{fill:url(#c);}.i{fill:url(#d);}</style><linearGradient id="a" x1="-9.84" y1="3408.21" x2="29.49" y2="3408.21" gradientTransform="translate(59.63 -3339.52)" gradientUnits="userSpaceOnUse"><stop offset="0" stop-color="#fff"/><stop offset="0.47" stop-color="#c1bebd"/><stop offset="1" stop-color="#463d3a"/></linearGradient><linearGradient id="b" x1="-49.17" y1="3408.21" x2="-9.84" y2="3408.21" xlink:href="#a"/><linearGradient id="c" x1="34.4" y1="108.2" x2="34.4" y2="0.38" gradientUnits="userSpaceOnUse"><stop offset="0.66" stop-color="#fff"/><stop offset="0.66" stop-color="#fdfdfd"/><stop offset="0.7" stop-color="#d1d1d1"/><stop offset="0.75" stop-color="#aaa"/><stop offset="0.79" stop-color="#8b8b8b"/><stop offset="0.84" stop-color="#737373"/><stop offset="0.88" stop-color="#616161"/><stop offset="0.94" stop-color="#575757"/><stop offset="1" stop-color="#545454"/></linearGradient><linearGradient id="d" x1="-319.59" y1="108.2" x2="-319.59" y2="0.38" gradientTransform="matrix(-1, 0, 0, 1, -254.41, 0)" xlink:href="#c"/></defs><title>アートボード 1</title><g class="a"><polygon class="b" points="0.41 28.92 0.41 85.8 49.79 114.25 99.17 85.8 99.17 28.92 49.79 0.48 0.41 28.92"/><path class="c" d="M49.79,114.73,0,86V28.68l.21-.12L49.79,0,99.58,28.68V86l-.21.12ZM.83,85.56l49,28.2,49-28.2V29.16L49.79,1l-49,28.2Z"/><polygon class="c" points="10.46 34.71 10.46 80.02 49.79 102.67 89.12 80.02 89.12 34.71 49.79 12.05 10.46 34.71"/><path class="d" d="M49.79,103.63a1,1,0,0,1-1-1V57.36a1,1,0,1,1,1.91,0v45.31A1,1,0,0,1,49.79,103.63Z"/><polygon class="e" points="89.12 34.71 49.79 57.36 49.79 102.67 89.12 80.02 89.12 34.71"/><polygon class="f" points="10.46 34.71 49.79 57.36 49.79 102.67 10.46 80.02 10.46 34.71"/><path class="g" d="M52.11,13.39l-2.32-1.34-2.32,1.34c-.31,7.88-.95,21.57-2.22,40.89-1.14,17.3-3.09,32.62-4.65,43.1l9.19,5.29L59,97.38c-1.56-10.48-3.51-25.79-4.65-43.1C53.06,35,52.42,21.27,52.11,13.39Z"/><path class="c" d="M47.47,13.39l-5.1,2.94A244.72,244.72,0,0,1,35.21,55.5,120.14,120.14,0,0,1,21.33,86.28L40.6,97.38c1.56-10.48,3.51-25.79,4.65-43.1C46.52,35,47.16,21.27,47.47,13.39Z"/><path class="h" d="M47.47,13.39l-5.1,2.94A244.72,244.72,0,0,1,35.21,55.5,120.14,120.14,0,0,1,21.33,86.28L40.6,97.38c1.56-10.48,3.51-25.79,4.65-43.1C46.52,35,47.16,21.27,47.47,13.39Z"/><path class="c" d="M57.21,16.33l-5.1-2.94c.31,7.88.95,21.57,2.22,40.89,1.14,17.3,3.09,32.62,4.65,43.1l19.27-11.1A120.14,120.14,0,0,1,64.37,55.5,244.72,244.72,0,0,1,57.21,16.33Z"/><path class="i" d="M57.21,16.33l-5.1-2.94c.31,7.88.95,21.57,2.22,40.89,1.14,17.3,3.09,32.62,4.65,43.1l19.27-11.1A120.14,120.14,0,0,1,64.37,55.5,244.72,244.72,0,0,1,57.21,16.33Z"/></g></svg>